#!OML:ASF X:\für Bonn\!DataBase\2005_08_10_Bjorn_Final\c3d\bjorn.ASF
:FULLY-SPECIFIED
:DEGREES
262
root 16.0773 17.9639 1.04837 175.607 -105.481 -139.801
lowerback 63.2038 -0.681893 9.82184
upperback 18.6831 1.49188 -2.33584
thorax 0.146386 0.966957 -7.32106
lowerneck 3.68601 -8.61624 10.5607
upperneck -17.3426 -10.0405 5.64244
head -6.19273 -6.14108 0.791547
rclavicle -7.63333e-014 -3.33958e-014
rhumerus 54.8626 2.07079 -25.7104
rradius 28.5173
rwrist 0.0358174
rhand -38.3817 23.2538
rfingers 7.12502
rthumb -11.4074 -6.41585
lclavicle -7.63333e-014 -3.33958e-014
lhumerus -13.4673 -30.6862 85.7541
lradius 52.4183
lwrist 3.24735
lhand -28.4122 -13.6761
lfingers 7.12502
lthumb -1.78405 16.2962
rfemur -69.9232 -8.06912 2.69436
rtibia 57.2865
rfoot -17.3998 -2.51782
rtoes -9.3481
lfemur -69.4063 1.56438 -30.6086
ltibia 53.1932
lfoot -11.1801 2.38668
ltoes -20.4366
263
root 16.092 17.9757 1.03896 175.862 -105.376 -140.039
lowerback 62.234 -0.502442 9.73202
upperback 18.9012 1.54343 -2.28197
thorax 0.383061 0.987222 -7.26122
lowerneck 3.37232 -8.57024 10.6439
upperneck -17.1676 -10.039 5.57043
head -6.09134 -6.13054 0.734817
rclavicle 3.18055e-015 -5.24792e-014
rhumerus 54.1466 2.55634 -26.6278
rradius 28.9616
rwrist -0.526301
rhand -37.8932 23.237
rfingers 7.12502
rthumb -10.9363 -6.4582
lclavicle 3.18055e-015 -5.24792e-014
lhumerus -13.4006 -30.6246 85.7037
lradius 52.3281
lwrist 3.27889
lhand -28.5519 -13.4644
lfingers 7.12502
lthumb -1.91896 16.5067
rfemur -69.9418 -8.08291 2.90789
rtibia 57.0519
rfoot -17.1995 -2.41951
rtoes -9.184
lfemur -69.3959 1.65576 -30.4875
ltibia 52.9893
lfoot -11.0689 2.35389
ltoes -20.1913
264
root 16.1069 17.9875 1.03071 176.157 -105.289 -140.302
lowerback 61.2082 -0.339175 9.64897
upperback 19.1112 1.58583 -2.21487
thorax 0.618762 1.00195 -7.1867
lowerneck 3.24682 -8.54543 10.6706
upperneck -17.1301 -10.0315 5.54235
head -6.06061 -6.1252 0.714042
rclavicle 3.81667e-014 6.36111e-015
rhumerus 53.3893 3.10522 -27.4703
rradius 29.4146
rwrist -1.03041
rhand -37.3364 23.1099
rfingers 7.12502
rthumb -10.3992 -6.61298
lclavicle 3.81667e-014 6.36111e-015
lhumerus -13.3625 -30.5225 85.6968
lradius 52.1838
lwrist 3.19672
lhand -28.7531 -13.29
lfingers 7.12502
lthumb -2.11321 16.6793
rfemur -69.9612 -8.11457 3.12155
rtibia 56.8141
rfoot -17.0285 -2.30516
rtoes -8.99161
lfemur -69.3942 1.71533 -30.3638
ltibia 52.7803
lfoot -10.9481 2.37788
ltoes -20.0099
265
root 16.1216 17.9999 1.02302 176.361 -105.178 -140.487
lowerback 60.1511 -0.140752 9.51527
upperback 19.343 1.63787 -2.12109
thorax 0.886282 1.01581 -7.06458
lowerneck 3.12564 -8.5091 10.7361
upperneck -17.1268 -10.0194 5.42533
head -6.04819 -6.11604 0.661376
rclavicle -6.04305e-014 1.43125e-014
rhumerus 52.6519 3.62229 -28.3425
rradius 29.8338
rwrist -1.47524
rhand -36.6905 22.9731
rfingers 7.12502
rthumb -9.77602 -6.77995
lclavicle -6.04305e-014 1.43125e-014
lhumerus -13.2846 -30.3251 85.6995
lradius 52.032
lwrist 3.24565
lhand -28.845 -13.2672
lfingers 7.12502
lthumb -2.20199 16.7012
rfemur -69.9671 -8.12794 3.31829
rtibia 56.5657
rfoot -16.8398 -2.20355
rtoes -8.84378
lfemur -69.3706 1.77442 -30.2399
ltibia 52.5657
lfoot -10.8208 2.42708
ltoes -19.9176
266
root 16.1356 18.0136 1.01549 176.668 -105.062 -140.77
lowerback 59.0703 0.0434912 9.42172
upperback 19.5587 1.70089 -2.03551
thorax 1.15104 1.03865 -6.97284
lowerneck 3.07964 -8.49561 10.8207
upperneck -17.188 -10.0197 5.32674
head -6.07008 -6.11924 0.618844
rclavicle 9.54166e-015 2.54444e-014
rhumerus 51.847 4.15301 -29.1912
rradius 30.2106
rwrist -1.89143
rhand -36.0205 22.7686
rfingers 7.12502
rthumb -9.12959 -7.01379
lclavicle 9.54166e-015 2.54444e-014
lhumerus -13.2317 -30.1964 85.6967
lradius 51.8917
lwrist 3.37007
lhand -28.8989 -13.2965
lfingers 7.12502
lthumb -2.25407 16.6714
rfemur -69.9807 -8.15126 3.55621
rtibia 56.3134
rfoot -16.6424 -2.09056
rtoes -8.72441
lfemur -69.3494 1.83652 -30.0813
ltibia 52.3409
lfoot -10.7065 2.46718
ltoes -19.6295
267
root 16.1498 18.0273 1.00889 176.924 -104.945 -141.019
lowerback 57.9649 0.221014 9.31922
upperback 19.7952 1.74986 -1.94903
thorax 1.44924 1.05624 -6.87106
lowerneck 3.03487 -8.45904 10.9229
upperneck -17.2669 -9.9901 5.20666
head -6.09918 -6.10857 0.56551
rclavicle 3.18055e-014 -4.92986e-014
rhumerus 51.0678 4.64983 -30.0589
rradius 30.5513
rwrist -2.26951
rhand -35.2577 22.4676
rfingers 7.12502
rthumb -8.3935 -7.34563
lclavicle 3.18055e-014 -4.92986e-014
lhumerus -13.1269 -30.0286 85.6706
lradius 51.7105
lwrist 3.39809
lhand -28.9875 -13.3679
lfingers 7.12502
lthumb -2.33965 16.599
rfemur -69.961 -8.15814 3.77006
rtibia 56.046
rfoot -16.4498 -1.98414
rtoes -8.56382
lfemur -69.3069 1.89928 -29.9415
ltibia 52.1098
lfoot -10.5812 2.51246
ltoes -19.6611
